<svg xmlns="http://www.w3.org/2000/svg" viewBox="0 -4 196 50" width="392" height="100" role="img" aria-label="iruali">
  <!-- Sunrise over the lagoon: iru (sun) + ali (light) -->
  <path d="M6 29 A18 18 0 0 1 42 29 Z" fill="#F5A524"/>
  <rect x="0" y="33" width="48" height="5" rx="2.5" fill="#0B7A70"/>
  <rect x="8" y="41" width="32" height="4" rx="2" fill="#8ACFC6"/>
  <g transform="translate(62,0)">
    <g fill="none" stroke="#0F2A3A" stroke-width="6" stroke-linecap="round" stroke-linejoin="round">
      <path d="M3 17V40"/>
      <path d="M19 40V27A10 10 0 0 1 29 17H32"/>
      <path d="M44 17V30A10 10 0 0 0 64 30M64 17V40"/>
      <circle cx="89" cy="28.5" r="11.5"/><path d="M100.5 17V40"/>
      <path d="M114 1V40"/>
      <path d="M127 17V40"/>
    </g>
    <circle cx="3" cy="5" r="5" fill="#F5A524"/>
    <circle cx="127" cy="5" r="5" fill="#F5A524"/>
  </g>
</svg>
